<svg width="217" height="53" xmlns="http://www.w3.org/2000/svg"><defs><linearGradient x1="50%" y1="0%" x2="50%" y2="100%" id="a"><stop stop-color="#FBBD61" offset="0%"/><stop stop-color="#EC7532" offset="100%"/></linearGradient></defs><g fill="none" fill-rule="evenodd"><path fill="url(#a)" transform="matrix(-1 0 0 1 51.264 0)" d="M0 12.704l25.664 25.792 17.152-17.088V53h8.448V.8l-25.6 25.6L0 .8z"/><path d="M53.537 30.279c-.68-.748-1.516-1.122-2.508-1.122-.991 0-1.827.374-2.507 1.122-.68.748-1.02 1.652-1.02 2.711 0 1.06.34 1.961 1.02 2.703.68.743 1.516 1.114 2.508 1.114.991 0 1.827-.371 2.507-1.114.68-.742 1.02-1.643 1.02-2.703 0-1.06-.34-1.963-1.02-2.711zm-2.516 8.84c-1.757 0-3.236-.586-4.437-1.76-1.201-1.173-1.802-2.632-1.802-4.377 0-1.745.6-3.204 1.802-4.377 1.201-1.174 2.68-1.76 4.437-1.76 1.757 0 3.236.586 4.437 1.76 1.201 1.173 1.802 2.632 1.802 4.377 0 1.745-.6 3.204-1.802 4.377-1.201 1.174-2.68 1.76-4.437 1.76zm22.797-4.437l3.026-7.565h2.873L74.94 39h-2.244l-4.777-11.883h2.873l3.026 7.565zm17.51-7.565h2.652V39h-2.652V27.117zm24.344 0v2.363h-5.916v2.448h5.321v2.261h-5.321v2.465h6.103V39h-8.755V27.117h8.568zm29.784 1.921c-.374.238-.561.598-.561 1.08 0 .481.187.85.561 1.105.374.255 1.17.53 2.388.824 1.219.295 2.137.708 2.754 1.241.618.533.927 1.317.927 2.355 0 1.037-.391 1.878-1.173 2.524-.782.646-1.808.969-3.077.969-1.859 0-3.508-.64-4.947-1.921l1.258-1.513c1.201 1.043 2.448 1.564 3.74 1.564.646 0 1.159-.139 1.538-.416.38-.278.57-.646.57-1.105 0-.46-.179-.816-.536-1.072-.357-.255-.971-.487-1.844-.697-.873-.21-1.536-.402-1.989-.578a4.493 4.493 0 01-1.207-.688c-.703-.533-1.054-1.349-1.054-2.448 0-1.1.4-1.946 1.198-2.541.8-.596 1.788-.893 2.967-.893.76 0 1.513.125 2.261.374.748.25 1.394.6 1.938 1.054l-1.071 1.513c-.351-.317-.827-.578-1.428-.782a5.501 5.501 0 00-1.777-.306c-.583 0-1.062.119-1.436.357zm23.239-.085V39h-2.006V28.953h-3.604v-1.836h9.214v1.836h-3.604zm16.728 7.344L184.233 39h-2.142l5.236-11.883h2.142L194.705 39h-2.142l-1.19-2.703h-5.95zm5.134-1.853l-2.159-4.896-2.159 4.896h4.318zm25.483-3.468c0 1.96-.856 3.196-2.567 3.706L216.584 39h-2.55l-2.839-3.995h-2.635V39h-2.006V27.117h4.42c1.813 0 3.111.306 3.893.918.782.612 1.173 1.592 1.173 2.941zm-2.669 1.683c.408-.351.612-.915.612-1.691 0-.777-.21-1.31-.629-1.599-.42-.289-1.167-.433-2.244-.433h-2.55v4.25h2.499c1.133 0 1.904-.176 2.312-.527z" fill="#FFF"/></g></svg>